<?xml version="1.0" encoding="UTF-8" standalone="no"?>
<!-- Created with Inkscape (http://www.inkscape.org/) -->

<svg xmlns:dc="http://purl.org/dc/elements/1.1/" xmlns:cc="http://creativecommons.org/ns#" xmlns:rdf="http://www.w3.org/1999/02/22-rdf-syntax-ns#" xmlns:svg="http://www.w3.org/2000/svg" xmlns="http://www.w3.org/2000/svg" xmlns:sodipodi="http://sodipodi.sourceforge.net/DTD/sodipodi-0.dtd" xmlns:inkscape="http://www.inkscape.org/namespaces/inkscape" width="34mm" height="34mm" viewBox="0 0 34 34" version="1.1" id="svg65" inkscape:version="0.92.3 (2405546, 2018-03-11)" sodipodi:docname="d10.svg">
<defs id="defs59">
</defs>
<sodipodi:namedview id="base" pagecolor="#ffffff" bordercolor="#666666" borderopacity="1.0" inkscape:pageopacity="0.0" inkscape:pageshadow="2" inkscape:zoom="1.7203" inkscape:cx="13.137" inkscape:cy="79.245" inkscape:document-units="mm" inkscape:current-layer="imagebot_14" showgrid="false" inkscape:window-width="717" inkscape:window-height="415" inkscape:window-x="28" inkscape:window-y="55" inkscape:window-maximized="0" />
<metadata id="metadata62">
<rdf:RDF>
<cc:Work rdf:about="">
<dc:format>image/svg+xml</dc:format>
<dc:type rdf:resource="http://purl.org/dc/dcmitype/StillImage" />
<dc:title />
</cc:Work>
</rdf:RDF>
</metadata>
<g inkscape:label="Layer 1" inkscape:groupmode="layer" id="layer1" transform="translate(0,-263)">
<g transform="matrix(0.27870179,0,0,0.26937744,-44.146421,228.44499)" id="g333">
<g style="fill:#ff0000" id="imagebot_14">
<path style="fill:#e30008;fill-opacity:1;stroke:#000000;stroke-width:3.39228" inkscape:connector-curvature="0" id="imagebot_18" d="m 162.99752,192.18006 3.58281,-13.25854 52.28823,-48.76026 h 1.7863 l 53.29649,49.70067 4.51267,17.02303 -58.51683,55.1547 -1.66781,-0.0896 -56.85085,-54.67225 z" />
<path style="fill:#e30008;fill-opacity:1;stroke:#000000;stroke-width:1.5" inkscape:connector-curvature="0" id="imagebot_17" d="m 160.64555,196.68803 20.9756,-11.56579 37.62416,-54.9606 37.45077,56.72458 -37.82769,18.07143 -37.63924,-20.22741" />
<path style="fill:#ff0000;stroke:#000000;stroke-width:1.13075995" inkscape:connector-curvature="0" id="imagebot_16" d="m 256.69606,186.49422 21.5636,10.19418" />
<path style="fill:#ff0000;stroke:#000000;stroke-width:1.07179081" inkscape:connector-curvature="0" id="imagebot_15" d="m 219.00783,204.98214 -0.13862,47.24316" />
<title id="title58">imagebot_14</title>
<g id="g836" transform="translate(0.37675074,3.7792e-4)" style="fill:none">
<path style="fill:none;fill-opacity:1;stroke:#000000;stroke-width:18" inkscape:connector-curvature="0" id="path828" d="m 531.52,523.73 19.011,-70.352 277.45,-258.73 h 9.4784 l 282.8,263.72 23.945,90.327 -310.5,292.66 -8.8497,-0.47531 -301.66,-290.1 z" transform="matrix(0.18846,0,0,0.18846,62.82726,93.4779)" />
<path style="fill:none;fill-opacity:1;stroke:#000000;stroke-width:1.5" inkscape:connector-curvature="0" id="path830" d="m 160.64555,196.68803 20.9756,-11.56579 37.62416,-54.9606 37.45077,56.72458 -37.82769,18.07143 -37.63924,-20.22741" />
<path style="fill:none;stroke:#000000;stroke-width:6" inkscape:connector-curvature="0" id="path832" d="m 1028.7,493.56 114.42,54.092" transform="matrix(0.18846,0,0,0.18846,62.82726,93.4779)" />
<path style="fill:none;stroke:#000000;stroke-width:5.68709993" inkscape:connector-curvature="0" id="path834" d="m 828.72,591.66 -0.73554,250.68" transform="matrix(0.18846,0,0,0.18846,62.82726,93.4779)" />
</g>
</g>
</g>
</g>
</svg>
