<svg xmlns="http://www.w3.org/2000/svg" viewBox="0 0 34 34"><g fill="red" transform="matrix(.2787 0 0 .26938 -44.146 -34.555)"><path d="M162.998 192.18l3.582-13.258 52.289-48.76h1.786l53.296 49.7 4.513 17.023-58.517 55.155-1.668-.09-56.85-54.672z" fill="#e30008" stroke="#000" stroke-width="3.392"/><path d="M160.646 196.688l20.975-11.566 37.624-54.96 37.451 56.724-37.828 18.072-37.639-20.228" fill="#e30008" stroke="#000" stroke-width="1.5"/><path d="M256.696 186.494l21.564 10.194" stroke="#000" stroke-width="1.131"/><path d="M219.008 204.982l-.139 47.243" stroke="#000" stroke-width="1.072"/><g fill="none" stroke="#000"><path d="M163.374 192.18l3.583-13.258 52.288-48.76h1.787l53.296 49.7 4.513 17.023-58.517 55.155-1.668-.09-56.85-54.672z" stroke-width="3.39228"/><path d="M161.022 196.688l20.976-11.565 37.624-54.961 37.45 56.725-37.827 18.071-37.64-20.227" stroke-width="1.5"/><path d="M257.073 186.495l21.563 10.194" stroke-width="1.13076"/><path d="M219.385 204.983l-.139 47.243" stroke-width="1.07177202"/></g></g></svg>