<svg xmlns="http://www.w3.org/2000/svg" viewBox="0 0 34 34"><g transform="matrix(.27716 0 0 .28943 -2.41 -78.4)" fill="#e30008"><path d="M70.588 384.132l33.97-8.346 23.883-36.237-2.749-31.304-22.247-26.86-32.307-6.801-34.44 7.51-21.433 27.662-3.114 30.043 21.983 35.54z" stroke="#000" stroke-width="4"/></g><g transform="matrix(.27716 0 0 .28943 -2.378 -78.266)" fill="#e30008"><path d="M37.75 323.862l10.227 36.563 43.896.165 10.25-36.6-30.92-23.74z" stroke="#000" stroke-width="1.761"/></g><g transform="matrix(.27716 0 0 .28943 -2.41 -78.4)"><path d="M71.138 274.952l-.183 25.83" fill="red" stroke="#000" stroke-width="1.857"/></g><g transform="matrix(.27716 0 0 .28943 -2.41 -78.4)"><path d="M38.271 325.372l-24.377-15.72" fill="red" stroke="#000" stroke-width="1.857"/></g><g transform="matrix(.27716 0 0 .28943 -2.41 -78.4)"><path d="M48.217 360.162l-14.45 16.64" fill="red" stroke="#000" stroke-width="1.857"/></g><g transform="matrix(.27716 0 0 .28943 -2.41 -78.4)"><path d="M91.667 360.712l13.267 15.263" fill="red" stroke="#000" stroke-width="1.857"/></g><g transform="matrix(.27716 0 0 .28943 -2.41 -78.4)"><path d="M102.235 324.452l22.94-15.93" fill="red" stroke="#000" stroke-width="1.857"/></g><g><g fill="none" transform="matrix(.27716 0 0 .28943 -2.41 -78.506)"><path d="M70.588 384.132l33.97-8.346 23.883-36.237-2.749-31.304-22.247-26.86-32.307-6.801-34.44 7.51-21.433 27.662-3.114 30.043 21.983 35.54z" stroke="#000" stroke-width="4"/></g><g fill="none" transform="matrix(.27716 0 0 .28943 -2.41 -78.506)"><path d="M37.75 323.862l10.227 36.563 43.896.165 10.25-36.6-30.92-23.74z" stroke="#000" stroke-width="1.761"/></g><g transform="matrix(.27716 0 0 .28943 -2.41 -78.506)"><path d="M71.138 274.952l-.183 25.83" fill="red" stroke="#000" stroke-width="1.857"/></g><g transform="matrix(.27716 0 0 .28943 -2.41 -78.506)"><path d="M38.271 325.372l-24.377-15.72" fill="red" stroke="#000" stroke-width="1.857"/></g><g transform="matrix(.27716 0 0 .28943 -2.41 -78.506)"><path d="M48.217 360.162l-14.45 16.64" fill="red" stroke="#000" stroke-width="1.857"/></g><g transform="matrix(.27716 0 0 .28943 -2.41 -78.506)"><path d="M91.667 360.712l13.267 15.263" fill="red" stroke="#000" stroke-width="1.857"/></g><g transform="matrix(.27716 0 0 .28943 -2.41 -78.506)"><path d="M102.235 324.452l22.94-15.93" fill="red" stroke="#000" stroke-width="1.857"/></g></g></svg>