<svg xmlns="http://www.w3.org/2000/svg" viewBox="0 0 34 34"><g stroke="#000"><path d="M166.654 297.529l54.063-31.912 54.053 31.759-2.9 60.314-51.306 31.759-51.155-30.995z" transform="matrix(.29533 0 0 .26432 -48.096 -69.803)" fill="#e30008" stroke-width="4"/><path d="M17.178.605l-.135 5.893M7.392 22.804l19.617.202M1.935 24.944l5.502-2.1 9.515 10.251 9.966-10.17 4.37 1.328M1.85 9.407L17.088 6.54l15.056 2.908-5.451 13.438-9.74-16.387-9.651 16.266z" fill="none" stroke-width=".232"/><path d="M1.122 8.84L17.088.405 33.052 8.8l-.857 15.942-15.152 8.395-15.108-8.193z" fill="none" stroke-width="1.118"/></g></svg>