<svg xmlns="http://www.w3.org/2000/svg" viewBox="0 0 34 35"><g transform="matrix(.27803 0 0 .25101 -1.318 -30.724)" fill="#e30008"><path d="M66.317 124.732L8.199 191.029 8 190.787c19.677 22.998 39.01 46.475 58.443 69.747l.637-.016c19.239-23.011 37.162-47.653 56.396-70.512L66.99 124.762z" stroke="#000" stroke-width="3"/><path d="M8.465 191.122l115.027-.927" stroke="#000" stroke-width="1.1742599999999999"/></g><g transform="matrix(.27803 0 0 .25101 -1.318 -30.724)" fill="none" fill-opacity=".451"><path d="M66.317 124.732L8.199 191.029 8 190.787c19.677 22.998 39.01 46.475 58.443 69.747l.637-.016c19.239-23.011 37.162-47.653 56.396-70.512L66.99 124.762z" stroke="#000" stroke-width="3"/><path d="M8.465 191.122l115.027-.927" stroke="#000" stroke-width="1.1742599999999999"/></g></svg>