<?xml version="1.0" encoding="UTF-8" standalone="no"?>
<!-- Created with Inkscape (http://www.inkscape.org/) -->

<svg xmlns:dc="http://purl.org/dc/elements/1.1/" xmlns:cc="http://creativecommons.org/ns#" xmlns:rdf="http://www.w3.org/1999/02/22-rdf-syntax-ns#" xmlns:svg="http://www.w3.org/2000/svg" xmlns="http://www.w3.org/2000/svg" xmlns:sodipodi="http://sodipodi.sourceforge.net/DTD/sodipodi-0.dtd" xmlns:inkscape="http://www.inkscape.org/namespaces/inkscape" width="34mm" height="35mm" viewBox="0 0 34 35" version="1.1" id="svg65" inkscape:version="0.92.3 (2405546, 2018-03-11)" sodipodi:docname="d8.svg">
<defs id="defs59">
</defs>
<sodipodi:namedview id="base" pagecolor="#ffffff" bordercolor="#666666" borderopacity="1.0" inkscape:pageopacity="0.0" inkscape:pageshadow="2" inkscape:zoom="1.7203" inkscape:cx="30.96" inkscape:cy="55.993" inkscape:document-units="mm" inkscape:current-layer="layer1" showgrid="false" inkscape:window-width="717" inkscape:window-height="415" inkscape:window-x="28" inkscape:window-y="55" inkscape:window-maximized="0" />
<metadata id="metadata62">
<rdf:RDF>
<cc:Work rdf:about="">
<dc:format>image/svg+xml</dc:format>
<dc:type rdf:resource="http://purl.org/dc/dcmitype/StillImage" />
<dc:title />
</cc:Work>
</rdf:RDF>
</metadata>
<g inkscape:label="Layer 1" inkscape:groupmode="layer" id="layer1" transform="translate(0,-262)">
<g transform="matrix(0.27803198,0,0,0.2510141,-1.3184947,231.27597)" id="g279" style="fill:#e30008;fill-opacity:1">
<g id="imagebot_20" style="fill:#e30008;fill-opacity:1">
<path style="fill:#e30008;stroke:#000000;stroke-width:3;fill-opacity:1" inkscape:connector-curvature="0" id="imagebot_22" d="M 66.316827,124.73203 8.1987889,191.02879 7.9999867,190.7872 c 19.6766823,22.99788 39.0108723,46.47525 58.4429163,69.74713 l 0.637545,-0.0162 C 86.31874,237.50652 104.24186,212.86468 123.47624,190.00575 L 66.990422,124.76191 Z" />
<path style="fill:#e30008;stroke:#000000;stroke-width:6;fill-opacity:1" inkscape:connector-curvature="0" id="imagebot_21" d="m -2650.5,-53.343 587.74,-4.7351" transform="matrix(0.19571,0,0,0.19571,527.19426,201.5619)" />
<title id="title46">imagebot_20</title>
</g>
</g>
<g style="fill:none;fill-opacity:0.45121951" id="g825" transform="matrix(0.27803198,0,0,0.2510141,-1.3184947,231.27597)">
<g style="fill:none;fill-opacity:0.45121951" id="g823">
<path d="M 66.316827,124.73203 8.1987889,191.02879 7.9999867,190.7872 c 19.6766823,22.99788 39.0108723,46.47525 58.4429163,69.74713 l 0.637545,-0.0162 C 86.31874,237.50652 104.24186,212.86468 123.47624,190.00575 L 66.990422,124.76191 Z" id="path817" inkscape:connector-curvature="0" style="fill:none;fill-opacity:0.45121951;stroke:#000000;stroke-width:3" />
<path transform="matrix(0.19571,0,0,0.19571,527.19426,201.5619)" d="m -2650.5,-53.343 587.74,-4.7351" id="path819" inkscape:connector-curvature="0" style="fill:none;fill-opacity:0.45121951;stroke:#000000;stroke-width:6" />
<title id="title821">imagebot_20</title>
</g>
</g>
</g>
</svg>
