<svg xmlns="http://www.w3.org/2000/svg" viewBox="0 0 56 39"><g fill="#e30008"><path d="M111.09 512.57l7.31-29.52 55.79-18.99 47.22 40.11-5.24 31.68-58.46 17.87-47.28-38.56z" stroke="#000" stroke-width="3.02" transform="matrix(.31686 0 0 .34594 -15.606 -158.298)"/><path d="M215.59 534.65l-19.38 3.86-37.21 10.2-33.15-23.51 48.34-61.14 22.89 73.71" stroke="#000" stroke-width=".906" transform="matrix(.31686 0 0 .34594 -15.606 -158.298)"/></g><g fill="none"><path d="M111.09 512.57l7.31-29.52 55.79-18.99 47.22 40.11-5.24 31.68-58.46 17.87-47.28-38.56z" stroke="#000" stroke-width="3.02" transform="matrix(.31686 0 0 .34594 -15.607 -158.298)"/><path d="M-15.83 551.81l-19.38 3.86-37.21 10.2-33.15-23.51 48.34-61.13 22.89 73.71" stroke="#000" stroke-width=".906" transform="matrix(.31686 0 0 .34594 57.721 -164.238)"/></g><path d="M110.715 515.07l14.431 10.641" fill="#005184" stroke="#000" stroke-width=".604" transform="matrix(.31686 0 0 .34594 -15.486 -159.162)"/><path d="M56.498 551.676l-5.837-31.007 44.16-42.398 61.528 17.028 8.7 32.134-47.143 42.515-60.916-15.533z" fill="#e30008" stroke="#000" stroke-width="3.023" transform="matrix(.31686 0 0 .34594 -15.486 -159.162)"/><path d="M165.93 528.57l-16.867 12.554-31.15 26.842-42.244-7.978 19.152-81.717 54.752 61.74" fill="none" stroke="#000" stroke-width="1.059" transform="matrix(.31686 0 0 .34594 -15.486 -159.162)"/><g fill="none" stroke="#000"><path d="M-98.342 555.23l-5.838-31 44.161-42.4 61.528 17.03 8.701 32.13-47.144 42.51-60.916-15.53z" stroke-width="3.023" transform="matrix(.31686 0 0 .34594 33.576 -160.393)"/><path d="M11.089 532.13l-16.866 12.55-31.15 26.84-42.244-7.98 19.152-81.71 54.752 61.74" stroke-width="1.059" transform="matrix(.31686 0 0 .34594 33.576 -160.393)"/></g></svg>